<svg width="40" height="21" viewBox="0 0 40 21" fill="none" xmlns="http://www.w3.org/2000/svg">
<path d="M9.27607 15.3046L-2.27891 20.908V18.2455L6.24811 14.3648L6.1611 14.5128V14.1386L6.24811 14.2952L-2.27891 10.4059V7.75206L9.27607 13.3555V15.3046Z" fill="black"/>
<path d="M28.2012 16.7912L28.4928 16.7159L28.7845 16.7912C29.0595 16.8622 29.2991 17.031 29.4584 17.2661C29.6178 17.5011 29.686 17.7862 29.6502 18.0679C29.6144 18.3495 29.4771 18.6085 29.2641 18.7962C29.051 18.984 28.7768 19.0875 28.4928 19.0875C28.2089 19.0875 27.9347 18.984 27.7216 18.7962C27.5085 18.6085 27.3713 18.3495 27.3355 18.0679C27.2997 17.7862 27.3679 17.5011 27.5273 17.2661C27.6866 17.031 27.9262 16.8622 28.2012 16.7912Z" fill="black" stroke="black"/>
<path d="M34.9906 17.3336L35.1505 17.0685L35.4095 16.9125C35.5684 16.8168 35.7479 16.7612 35.9325 16.75H35.9928C36.2236 16.75 36.4491 16.8184 36.641 16.9466C36.8329 17.0748 36.9824 17.257 37.0707 17.4702C37.159 17.6834 37.1821 17.918 37.1371 18.1443C37.0921 18.3706 36.981 18.5785 36.8178 18.7416C36.6546 18.9048 36.4468 19.0159 36.2204 19.0609C35.9941 19.106 35.7596 19.0828 35.5464 18.9945C35.3332 18.9062 35.151 18.7567 35.0228 18.5649C34.8948 18.3733 34.8264 18.1482 34.8262 17.9179C34.8274 17.7119 34.8842 17.5101 34.9906 17.3336Z" fill="black" stroke="black"/>
<path d="M21.5762 16.9125L21.8371 17.0697L21.9951 17.3316C22.1015 17.508 22.1583 17.7098 22.1595 17.9158C22.1593 18.1461 22.0909 18.3713 21.9629 18.5628C21.8347 18.7546 21.6525 18.9042 21.4393 18.9925C21.2261 19.0808 20.9915 19.1039 20.7652 19.0589C20.5389 19.0138 20.331 18.9027 20.1679 18.7396C20.0047 18.5764 19.8936 18.3685 19.8486 18.1422C19.8036 17.9159 19.8267 17.6813 19.915 17.4681C20.0033 17.255 20.1528 17.0728 20.3447 16.9446C20.5361 16.8166 20.7612 16.7482 20.9914 16.7479C21.1976 16.7493 21.3996 16.8062 21.5762 16.9125Z" fill="black" stroke="black"/>
<g filter="url(#filter0_d_800_1598)">
<path d="M33.9095 3.74792V3.74792C33.8213 3.74792 33.7385 3.69902 33.6985 3.62042C33.2912 2.82003 32.7051 2.12334 31.9847 1.58482C31.2253 1.01708 30.3395 0.6421 29.4032 0.492085L29.3049 0.477502C29.202 0.462502 29.0995 0.448335 28.9982 0.440002C28.6631 0.408753 28.3258 0.408753 27.9907 0.440002C27.8862 0.448335 27.7824 0.462502 27.647 0.481669L27.5878 0.490835C26.6507 0.640193 25.7639 1.01481 25.0035 1.5825C24.2822 2.121 23.6952 2.81796 23.2872 3.61885C23.2466 3.69849 23.1655 3.74792 23.0762 3.74792V3.74792C21.9711 3.74792 20.9113 4.18691 20.1299 4.96831C19.3485 5.74971 18.9095 6.80952 18.9095 7.91459C18.9095 9.01965 19.3485 10.0795 20.1299 10.8609C20.9113 11.6423 21.9711 12.0813 23.0762 12.0813H33.9095C35.0146 12.0813 36.0744 11.6423 36.8558 10.8609C37.6372 10.0795 38.0762 9.01965 38.0762 7.91459C38.0762 6.80952 37.6372 5.74971 36.8558 4.96831C36.0744 4.18691 35.0146 3.74792 33.9095 3.74792Z" fill="white"/>
<path d="M28.9518 0.937842L28.9518 0.937872L28.9572 0.938317C29.0414 0.945244 29.1302 0.957333 29.2322 0.972188C29.2324 0.972217 29.2326 0.972246 29.2328 0.972275L29.3269 0.986239C30.1823 1.12375 30.9915 1.46655 31.6854 1.98528C32.3442 2.47785 32.8803 3.11509 33.2529 3.84718C33.3815 4.09988 33.6405 4.24792 33.9095 4.24792C34.8819 4.24792 35.8146 4.63423 36.5022 5.32186C37.1898 6.00949 37.5762 6.94213 37.5762 7.91459C37.5762 8.88705 37.1898 9.81968 36.5022 10.5073C35.8146 11.1949 34.8819 11.5813 33.9095 11.5813H23.0762C22.1037 11.5813 21.1711 11.1949 20.4834 10.5073C19.7958 9.81968 19.4095 8.88705 19.4095 7.91459C19.4095 6.94213 19.7958 6.00949 20.4834 5.32186C21.1711 4.63423 22.1037 4.24792 23.0762 4.24792C23.3526 4.24792 23.6063 4.09387 23.7327 3.84581C24.1059 3.11324 24.6429 2.47573 25.3026 1.98316C25.9979 1.4641 26.8087 1.1215 27.6655 0.98477C27.6658 0.984715 27.6662 0.984659 27.6665 0.984603L27.7203 0.976277C27.8552 0.957188 27.9439 0.945318 28.0304 0.938422L28.0305 0.938468L28.0372 0.937842C28.3414 0.909473 28.6476 0.909473 28.9518 0.937842Z" stroke="black"/>
</g>
<defs>
<filter id="filter0_d_800_1598" x="18.9095" y="0.416565" width="20.6667" height="13.1647" filterUnits="userSpaceOnUse" color-interpolation-filters="sRGB">
<feFlood flood-opacity="0" result="BackgroundImageFix"/>
<feColorMatrix in="SourceAlpha" type="matrix" values="0 0 0 0 0 0 0 0 0 0 0 0 0 0 0 0 0 0 127 0" result="hardAlpha"/>
<feOffset dx="1.5" dy="1.5"/>
<feComposite in2="hardAlpha" operator="out"/>
<feColorMatrix type="matrix" values="0 0 0 0 0 0 0 0 0 0 0 0 0 0 0 0 0 0 1 0"/>
<feBlend mode="normal" in2="BackgroundImageFix" result="effect1_dropShadow_800_1598"/>
<feBlend mode="normal" in="SourceGraphic" in2="effect1_dropShadow_800_1598" result="shape"/>
</filter>
</defs>
</svg>
