<svg width="251" height="191" viewBox="0 0 251 191" fill="none" xmlns="http://www.w3.org/2000/svg">
<path d="M250.5 96H97.4971V12H250.5V96Z" fill="#2F2F2F"/>
<path d="M178.497 102H250.497V96H178.497V102Z" fill="#787878"/>
<path d="M142.497 102H166.497V96H142.497V102Z" fill="#787878"/>
<path d="M112.497 102H136.497V96H112.497V102Z" fill="#787878"/>
<path d="M118.497 102H115.497V99H118.497V102Z" fill="#3D3D3D"/>
<path d="M124.497 102H121.497V99H124.497V102Z" fill="#3D3D3D"/>
<path d="M130.497 102H127.497V99H130.497V102Z" fill="#3D3D3D"/>
<path d="M136.497 102H133.497V99H136.497V102Z" fill="#3D3D3D"/>
<path d="M148.497 102H145.497V99H148.497V102Z" fill="#3D3D3D"/>
<path d="M154.497 102H151.497V99H154.497V102Z" fill="#3D3D3D"/>
<path d="M160.497 102H157.497V99H160.497V102Z" fill="#3D3D3D"/>
<path d="M166.497 102H163.497V99H166.497V102Z" fill="#3D3D3D"/>
<path d="M184.497 102H181.497V99H184.497V102Z" fill="#3D3D3D"/>
<path d="M190.497 102H187.497V99H190.497V102Z" fill="#3D3D3D"/>
<path d="M196.497 102H193.497V99H196.497V102Z" fill="#3D3D3D"/>
<path d="M202.497 102H199.497V99H202.497V102Z" fill="#3D3D3D"/>
<path d="M208.497 102H205.497V99H208.497V102Z" fill="#3D3D3D"/>
<path d="M214.497 102H211.497V99H214.497V102Z" fill="#3D3D3D"/>
<path d="M220.497 102H217.497V99H220.497V102Z" fill="#3D3D3D"/>
<path d="M226.497 102H223.497V99H226.497V102Z" fill="#3D3D3D"/>
<path d="M232.497 102H229.497V99H232.497V102Z" fill="#3D3D3D"/>
<path d="M238.497 102H235.497V99H238.497V102Z" fill="#3D3D3D"/>
<path d="M244.497 102H241.497V99H244.497V102Z" fill="#3D3D3D"/>
<path d="M250.497 102H247.497V99H250.497V102Z" fill="#3D3D3D"/>
<path d="M112.497 30H106.497V21H112.497V30Z" fill="#F9F8F7"/>
<path d="M111.497 23H107.497V22H111.497V23Z" fill="#E9E5D9"/>
<path d="M111.497 25H107.497V24H111.497V25Z" fill="#E9E5D9"/>
<path d="M111.497 29H107.497V28H111.497V29Z" fill="#E9E5D9"/>
<path d="M111.497 27H107.497V26H111.497V27Z" fill="#E9E5D9"/>
<path d="M124.497 30H118.497V21H124.497V30Z" fill="#F9F8F7"/>
<path d="M123.497 23H119.497V22H123.497V23Z" fill="#E9E5D9"/>
<path d="M123.497 25H119.497V24H123.497V25Z" fill="#E9E5D9"/>
<path d="M123.497 29H119.497V28H123.497V29Z" fill="#E9E5D9"/>
<path d="M123.497 27H119.497V26H123.497V27Z" fill="#E9E5D9"/>
<path d="M136.497 30H130.497V21H136.497V30Z" fill="#F9F8F7"/>
<path d="M135.497 23H131.497V22H135.497V23Z" fill="#E9E5D9"/>
<path d="M135.497 25H131.497V24H135.497V25Z" fill="#E9E5D9"/>
<path d="M135.497 29H131.497V28H135.497V29Z" fill="#E9E5D9"/>
<path d="M135.497 27H131.497V26H135.497V27Z" fill="#E9E5D9"/>
<path d="M148.497 50H106.497V38H148.497V50Z" fill="#616161"/>
<path d="M146.497 48H108.497V40H146.497V48Z" fill="#9F9F9F"/>
<path d="M107.747 38H107.247V36H107.747V38Z" fill="#F9F8F7"/>
<path d="M108.747 38H108.247V36H108.747V38Z" fill="#F9F8F7"/>
<path d="M109.747 38H109.247V36H109.747V38Z" fill="#F9F8F7"/>
<path d="M110.747 38H110.247V36H110.747V38Z" fill="#F9F8F7"/>
<path d="M111.747 38H111.247V36H111.747V38Z" fill="#F9F8F7"/>
<path d="M112.747 38H112.247V36H112.747V38Z" fill="#F9F8F7"/>
<path d="M113.747 38H113.247V36H113.747V38Z" fill="#F9F8F7"/>
<path d="M114.747 38H114.247V36H114.747V38Z" fill="#F9F8F7"/>
<path d="M115.747 38H115.247V36H115.747V38Z" fill="#F9F8F7"/>
<path d="M116.747 38H116.247V36H116.747V38Z" fill="#F9F8F7"/>
<path d="M117.747 38H117.247V36H117.747V38Z" fill="#F9F8F7"/>
<path d="M118.747 38H118.247V36H118.747V38Z" fill="#F9F8F7"/>
<path d="M119.747 38H119.247V36H119.747V38Z" fill="#F9F8F7"/>
<path d="M120.747 38H120.247V36H120.747V38Z" fill="#F9F8F7"/>
<path d="M121.747 38H121.247V36H121.747V38Z" fill="#F9F8F7"/>
<path d="M122.747 38H122.247V36H122.747V38Z" fill="#F9F8F7"/>
<path d="M123.747 38H123.247V36H123.747V38Z" fill="#F9F8F7"/>
<path d="M124.747 38H124.247V36H124.747V38Z" fill="#F9F8F7"/>
<path d="M125.747 38H125.247V36H125.747V38Z" fill="#F9F8F7"/>
<path d="M126.747 38H126.247V36H126.747V38Z" fill="#F9F8F7"/>
<path d="M127.747 38H127.247V36H127.747V38Z" fill="#F9F8F7"/>
<path d="M128.747 38H128.247V36H128.747V38Z" fill="#F9F8F7"/>
<path d="M129.747 38H129.247V36H129.747V38Z" fill="#F9F8F7"/>
<path d="M130.747 38H130.247V36H130.747V38Z" fill="#F9F8F7"/>
<path d="M131.747 38H131.247V36H131.747V38Z" fill="#F9F8F7"/>
<path d="M132.747 38H132.247V36H132.747V38Z" fill="#F9F8F7"/>
<path d="M133.747 38H133.247V36H133.747V38Z" fill="#F9F8F7"/>
<path d="M134.747 38H134.247V36H134.747V38Z" fill="#F9F8F7"/>
<path d="M135.747 38H135.247V36H135.747V38Z" fill="#F9F8F7"/>
<path d="M136.747 38H136.247V36H136.747V38Z" fill="#F9F8F7"/>
<path d="M137.747 38H137.247V36H137.747V38Z" fill="#F9F8F7"/>
<path d="M138.747 38H138.247V36H138.747V38Z" fill="#F9F8F7"/>
<path d="M139.747 38H139.247V36H139.747V38Z" fill="#F9F8F7"/>
<path d="M140.747 38H140.247V36H140.747V38Z" fill="#F9F8F7"/>
<path d="M141.747 38H141.247V36H141.747V38Z" fill="#F9F8F7"/>
<path d="M142.747 38H142.247V36H142.747V38Z" fill="#F9F8F7"/>
<path d="M143.747 38H143.247V36H143.747V38Z" fill="#F9F8F7"/>
<path d="M144.747 38H144.247V36H144.747V38Z" fill="#F9F8F7"/>
<path d="M145.747 38H145.247V36H145.747V38Z" fill="#F9F8F7"/>
<path d="M146.747 38H146.247V36H146.747V38Z" fill="#F9F8F7"/>
<path d="M147.747 38H147.247V36H147.747V38Z" fill="#F9F8F7"/>
<path d="M107.747 52H107.247V50H107.747V52Z" fill="#F9F8F7"/>
<path d="M108.747 52H108.247V50H108.747V52Z" fill="#F9F8F7"/>
<path d="M109.747 52H109.247V50H109.747V52Z" fill="#F9F8F7"/>
<path d="M110.747 52H110.247V50H110.747V52Z" fill="#F9F8F7"/>
<path d="M111.747 52H111.247V50H111.747V52Z" fill="#F9F8F7"/>
<path d="M112.747 52H112.247V50H112.747V52Z" fill="#F9F8F7"/>
<path d="M113.747 52H113.247V50H113.747V52Z" fill="#F9F8F7"/>
<path d="M114.747 52H114.247V50H114.747V52Z" fill="#F9F8F7"/>
<path d="M115.747 52H115.247V50H115.747V52Z" fill="#F9F8F7"/>
<path d="M116.747 52H116.247V50H116.747V52Z" fill="#F9F8F7"/>
<path d="M117.747 52H117.247V50H117.747V52Z" fill="#F9F8F7"/>
<path d="M118.747 52H118.247V50H118.747V52Z" fill="#F9F8F7"/>
<path d="M119.747 52H119.247V50H119.747V52Z" fill="#F9F8F7"/>
<path d="M120.747 52H120.247V50H120.747V52Z" fill="#F9F8F7"/>
<path d="M121.747 52H121.247V50H121.747V52Z" fill="#F9F8F7"/>
<path d="M122.747 52H122.247V50H122.747V52Z" fill="#F9F8F7"/>
<path d="M123.747 52H123.247V50H123.747V52Z" fill="#F9F8F7"/>
<path d="M124.747 52H124.247V50H124.747V52Z" fill="#F9F8F7"/>
<path d="M125.747 52H125.247V50H125.747V52Z" fill="#F9F8F7"/>
<path d="M126.747 52H126.247V50H126.747V52Z" fill="#F9F8F7"/>
<path d="M127.747 52H127.247V50H127.747V52Z" fill="#F9F8F7"/>
<path d="M128.747 52H128.247V50H128.747V52Z" fill="#F9F8F7"/>
<path d="M129.747 52H129.247V50H129.747V52Z" fill="#F9F8F7"/>
<path d="M130.747 52H130.247V50H130.747V52Z" fill="#F9F8F7"/>
<path d="M131.747 52H131.247V50H131.747V52Z" fill="#F9F8F7"/>
<path d="M132.747 52H132.247V50H132.747V52Z" fill="#F9F8F7"/>
<path d="M133.747 52H133.247V50H133.747V52Z" fill="#F9F8F7"/>
<path d="M134.747 52H134.247V50H134.747V52Z" fill="#F9F8F7"/>
<path d="M135.747 52H135.247V50H135.747V52Z" fill="#F9F8F7"/>
<path d="M136.747 52H136.247V50H136.747V52Z" fill="#F9F8F7"/>
<path d="M137.747 52H137.247V50H137.747V52Z" fill="#F9F8F7"/>
<path d="M138.747 52H138.247V50H138.747V52Z" fill="#F9F8F7"/>
<path d="M139.747 52H139.247V50H139.747V52Z" fill="#F9F8F7"/>
<path d="M140.747 52H140.247V50H140.747V52Z" fill="#F9F8F7"/>
<path d="M141.747 52H141.247V50H141.747V52Z" fill="#F9F8F7"/>
<path d="M142.747 52H142.247V50H142.747V52Z" fill="#F9F8F7"/>
<path d="M143.747 52H143.247V50H143.747V52Z" fill="#F9F8F7"/>
<path d="M144.747 52H144.247V50H144.747V52Z" fill="#F9F8F7"/>
<path d="M145.747 52H145.247V50H145.747V52Z" fill="#F9F8F7"/>
<path d="M146.747 52H146.247V50H146.747V52Z" fill="#F9F8F7"/>
<path d="M147.747 52H147.247V50H147.747V52Z" fill="#F9F8F7"/>
<path d="M118.497 85H106.497V60H118.497V85Z" fill="#787878"/>
<path d="M116.497 63H108.497V62H116.497V63Z" fill="#3D3D3D"/>
<path d="M116.497 65H108.497V64H116.497V65Z" fill="#3D3D3D"/>
<path d="M116.497 67H108.497V66H116.497V67Z" fill="#3D3D3D"/>
<path d="M116.497 69H108.497V68H116.497V69Z" fill="#3D3D3D"/>
<path d="M116.497 71H108.497V70H116.497V71Z" fill="#3D3D3D"/>
<path d="M116.497 73H108.497V72H116.497V73Z" fill="#3D3D3D"/>
<path d="M116.497 75H108.497V74H116.497V75Z" fill="#3D3D3D"/>
<path d="M116.497 77H108.497V76H116.497V77Z" fill="#3D3D3D"/>
<path d="M116.497 79H108.497V78H116.497V79Z" fill="#3D3D3D"/>
<path d="M116.497 81H108.497V80H116.497V81Z" fill="#3D3D3D"/>
<path d="M116.497 83H108.497V82H116.497V83Z" fill="#3D3D3D"/>
<path d="M97.4971 102H94.4971V6H97.4971V102Z" fill="#E9E5D9"/>
<path d="M97.4971 6H82.4971V0H97.4971V6Z" fill="#E9E5D9"/>
<path d="M94.4971 102H88.4971V99H94.4971V102Z" fill="#E9E5D9"/>
<path d="M238.497 54C238.497 72.226 223.723 87 205.497 87C187.272 87 172.497 72.226 172.497 54C172.497 35.774 187.272 21 205.497 21C223.723 21 238.497 35.774 238.497 54Z" fill="#F9F8F7"/>
<path d="M235.497 54C235.497 70.568 222.066 84 205.497 84C188.929 84 175.497 70.568 175.497 54C175.497 37.432 188.929 24 205.497 24C222.066 24 235.497 37.432 235.497 54Z" fill="#616161"/>
<path d="M214.497 54C214.497 58.971 210.468 63 205.497 63C200.526 63 196.497 58.971 196.497 54C196.497 49.029 200.526 45 205.497 45C210.468 45 214.497 49.029 214.497 54Z" fill="#3D3D3D"/>
<path d="M211.497 54C211.497 57.313 208.811 60 205.497 60C202.184 60 199.497 57.313 199.497 54C199.497 50.687 202.184 48 205.497 48C208.811 48 211.497 50.687 211.497 54Z" fill="#787878"/>
<path d="M231.118 45.481C232.018 48.151 232.498 51.0209 232.498 54.0009C232.498 58.3509 231.478 62.4509 229.638 66.0809C223.358 67.1109 216.698 65.2009 211.858 60.3609C213.488 58.7409 214.498 56.4809 214.498 54.0009C221.348 54.0009 227.408 50.641 231.118 45.481Z" fill="#787878"/>
<path d="M217.578 29.861C218.608 36.141 216.698 42.8 211.858 47.641C210.238 46.01 207.978 45.001 205.498 45.001C205.498 38.151 202.138 32.09 196.978 28.381C199.648 27.481 202.518 27.001 205.498 27.001C209.848 27.001 213.948 28.021 217.578 29.861Z" fill="#787878"/>
<path d="M205.498 63.0003C205.498 69.8513 208.858 75.9103 214.018 79.6203C211.348 80.5213 208.478 81.0003 205.498 81.0003C201.148 81.0003 197.048 79.9804 193.418 78.1414C192.388 71.8604 194.298 65.2004 199.138 60.3604C200.758 61.9904 203.018 63.0003 205.498 63.0003Z" fill="#787878"/>
<path d="M199.137 47.6412C197.507 49.2602 196.497 51.5212 196.497 54.0002C189.647 54.0002 183.587 57.3612 179.877 62.5212C178.977 59.8512 178.497 56.9812 178.497 54.0002C178.497 49.6512 179.517 45.5502 181.357 41.9202C187.637 40.8912 194.297 42.8002 199.137 47.6412Z" fill="#787878"/>
<path d="M133.497 64.5C133.497 66.985 131.482 69 128.997 69C126.512 69 124.497 66.985 124.497 64.5C124.497 62.015 126.512 60 128.997 60C131.482 60 133.497 62.015 133.497 64.5Z" fill="#616161"/>
<path d="M148.497 64.5C148.497 66.985 146.482 69 143.997 69C141.512 69 139.497 66.985 139.497 64.5C139.497 62.015 141.512 60 143.997 60C146.482 60 148.497 62.015 148.497 64.5Z" fill="#616161"/>
<path d="M133.497 76.5C133.497 78.985 131.482 81 128.997 81C126.512 81 124.497 78.985 124.497 76.5C124.497 74.015 126.512 72 128.997 72C131.482 72 133.497 74.015 133.497 76.5Z" fill="#787878"/>
<path d="M148.497 76.5C148.497 78.985 146.482 81 143.997 81C141.512 81 139.497 78.985 139.497 76.5C139.497 74.015 141.512 72 143.997 72C146.482 72 148.497 74.015 148.497 76.5Z" fill="#787878"/>
<path d="M181.497 18H139.497V15H181.497V18Z" fill="#787878"/>
<path d="M181.497 27H139.497V21H181.497V27Z" fill="#787878"/>
<path d="M160.497 84H154.497V36H160.497V84Z" fill="#F9F8F7"/>
<path d="M250.497 39H244.497V12H250.497V39Z" fill="black"/>
<path d="M250.497 84H238.497V78H250.497V84Z" fill="black"/>
<path d="M250.497 90H244.497V87H250.497V90Z" fill="black"/>
<path d="M235.497 15H187.497V12H235.497V15Z" fill="black"/>
<path d="M109.497 18H103.497V12H109.497V18Z" fill="black"/>
<path d="M130.497 15H118.497V12H130.497V15Z" fill="black"/>
<rect x="22.1235" y="76.9999" width="145.131" height="97.8497" rx="3.28694" fill="#C5C5C5"/>
<rect x="22.7559" y="77.632" width="143.74" height="96.4591" rx="2.90768" fill="#2F2F2F"/>
<path d="M0 174.217C0 174.148 0.0566005 174.091 0.126421 174.091H189.126C189.195 174.091 189.252 174.148 189.252 174.217V174.723H0V174.217Z" fill="#B9B8BD"/>
<path d="M0 174.723H189.252C180.248 177.353 172.274 177.927 156.635 178.516H33.2486C19.5983 178.142 12.3179 177.302 0 174.723Z" fill="#7E7E7E"/>
<rect x="29.2031" y="83.953" width="130.846" height="81.9207" fill="#C9FFDE"/>
<path d="M78.6348 174.091H110.366V174.85C110.366 175.059 110.197 175.229 109.987 175.229H79.014C78.8046 175.229 78.6348 175.059 78.6348 174.85V174.091Z" fill="#C4C4C4"/>
<path d="M109.102 174.091H110.366V174.85C110.366 175.059 110.196 175.229 109.987 175.229H109.102V174.091Z" fill="#A5A5A5"/>
<path d="M79.8989 174.091H78.6347V174.85C78.6347 175.059 78.8045 175.229 79.014 175.229H79.8989V174.091Z" fill="#A5A5A5"/>
<rect width="130.671" height="81.8116" transform="translate(29.2031 83.953)" fill="#D2D5DA"/>
<g filter="url(#filter0_d_146_1818)">
<path d="M199 125.175C199 125.09 199.069 125.022 199.153 125.022H199.872C199.957 125.022 200.025 125.09 200.025 125.175V127.688C200.025 127.773 199.957 127.841 199.872 127.841H199.153C199.069 127.841 199 127.773 199 127.688V125.175Z" fill="#55585D"/>
<path d="M199 130.301C199 130.216 199.069 130.148 199.153 130.148H199.872C199.957 130.148 200.025 130.216 200.025 130.301V135.378C200.025 135.462 199.957 135.531 199.872 135.531H199.153C199.069 135.531 199 135.462 199 135.378V130.301Z" fill="#55585D"/>
<path d="M199 137.222C199 137.137 199.069 137.069 199.153 137.069H199.872C199.957 137.069 200.025 137.137 200.025 137.222V142.298C200.025 142.383 199.957 142.451 199.872 142.451H199.153C199.069 142.451 199 142.383 199 142.298V137.222Z" fill="#55585D"/>
<path d="M232.834 132.352C232.834 132.267 232.902 132.199 232.987 132.199H233.706C233.791 132.199 233.859 132.267 233.859 132.352V140.248C233.859 140.332 233.791 140.401 233.706 140.401H232.987C232.902 140.401 232.834 140.332 232.834 140.248V132.352Z" fill="#55585D"/>
<path d="M199.256 116.907C199.256 115.302 200.558 114 202.163 114H230.696C232.301 114 233.603 115.302 233.603 116.907V182.093C233.603 183.698 232.301 185 230.696 185H202.163C200.558 185 199.256 183.698 199.256 182.093V116.907Z" fill="#36393E"/>
<path d="M200.794 117.503C200.794 116.418 201.674 115.538 202.76 115.538H230.1C231.185 115.538 232.065 116.418 232.065 117.503V181.497C232.065 182.582 231.185 183.462 230.1 183.462H202.76C201.674 183.462 200.794 182.582 200.794 181.497V117.503Z" fill="white"/>
<rect x="200.795" y="115.538" width="31.2707" height="67.9241" rx="1.9651" fill="#D2D5DA"/>
<path fill-rule="evenodd" clip-rule="evenodd" d="M199.513 117.01C199.513 115.489 200.746 114.256 202.267 114.256H230.593C232.114 114.256 233.347 115.489 233.347 117.01V181.99C233.347 183.511 232.114 184.744 230.593 184.744H202.267C200.746 184.744 199.513 183.511 199.513 181.99V117.01ZM200.794 117.68C200.794 116.497 201.753 115.538 202.936 115.538H207.971V117.03C207.971 117.622 208.451 118.101 209.042 118.101H223.817C224.409 118.101 224.888 117.622 224.888 117.03V115.538H229.923C231.106 115.538 232.065 116.497 232.065 117.68V181.32C232.065 182.503 231.106 183.462 229.923 183.462H202.936C201.753 183.462 200.794 182.503 200.794 181.32V117.68Z" fill="#3E3E3E"/>
<path d="M213.866 116.307C213.866 116.165 213.981 116.051 214.123 116.051H218.736C218.878 116.051 218.993 116.165 218.993 116.307C218.993 116.449 218.878 116.563 218.736 116.563H214.123C213.981 116.563 213.866 116.449 213.866 116.307Z" fill="#5E5E5E"/>
<path d="M221.3 116.307C221.3 116.59 221.07 116.819 220.787 116.819C220.504 116.819 220.274 116.59 220.274 116.307C220.274 116.024 220.504 115.794 220.787 115.794C221.07 115.794 221.3 116.024 221.3 116.307Z" fill="black"/>
</g>
<defs>
<filter id="filter0_d_146_1818" x="195.753" y="112.889" width="41.3528" height="77.4934" filterUnits="userSpaceOnUse" color-interpolation-filters="sRGB">
<feFlood flood-opacity="0" result="BackgroundImageFix"/>
<feColorMatrix in="SourceAlpha" type="matrix" values="0 0 0 0 0 0 0 0 0 0 0 0 0 0 0 0 0 0 127 0" result="hardAlpha"/>
<feMorphology radius="1.02527" operator="erode" in="SourceAlpha" result="effect1_dropShadow_146_1818"/>
<feOffset dy="2.13598"/>
<feGaussianBlur stdDeviation="2.13598"/>
<feComposite in2="hardAlpha" operator="out"/>
<feColorMatrix type="matrix" values="0 0 0 0 0 0 0 0 0 0 0 0 0 0 0 0 0 0 0.25 0"/>
<feBlend mode="normal" in2="BackgroundImageFix" result="effect1_dropShadow_146_1818"/>
<feBlend mode="normal" in="SourceGraphic" in2="effect1_dropShadow_146_1818" result="shape"/>
</filter>
</defs>
</svg>
