<svg width="175" height="171" viewBox="0 0 175 171" fill="none" xmlns="http://www.w3.org/2000/svg">
<mask id="mask0_335_8197" style="mask-type:alpha" maskUnits="userSpaceOnUse" x="0" y="16" width="98" height="155">
<path d="M8.74524 17.3695C4.61239 17.3695 1.26206 20.7199 1.26206 24.8527L1.26205 162.465C1.26205 166.598 4.61239 169.948 8.74524 169.948L89.4383 169.948C93.5711 169.948 96.9214 166.598 96.9214 162.465L96.9214 24.8527C96.9214 20.7199 93.5711 17.3695 89.4383 17.3695L8.74524 17.3695Z" fill="white" stroke="black" stroke-width="1.10346"/>
</mask>
<g mask="url(#mask0_335_8197)">
<path d="M8.74524 17.3695C4.61239 17.3695 1.26206 20.7199 1.26206 24.8527L1.26205 162.465C1.26205 166.598 4.61239 169.948 8.74524 169.948L89.4383 169.948C93.5711 169.948 96.9214 166.598 96.9214 162.465L96.9214 24.8527C96.9214 20.7199 93.5711 17.3695 89.4383 17.3695L8.74524 17.3695Z" fill="#454545" stroke="black" stroke-width="1.10346"/>
<rect x="-2.49915" y="-7.48218" width="116.916" height="177.895" fill="white"/>
<mask id="mask1_335_8197" style="mask-type:alpha" maskUnits="userSpaceOnUse" x="20" y="57" width="138" height="77">
<path fill-rule="evenodd" clip-rule="evenodd" d="M127.917 60.4269C122.75 55.2595 114.833 59.1213 107.781 69.0763C107.002 65.3498 105.653 62.3563 103.722 60.4253C98.5558 55.2588 90.6412 59.1184 83.5898 69.0694C82.8107 65.3458 81.4622 62.3545 79.5324 60.4246C74.3659 55.2582 66.4515 59.1176 59.4001 69.0684C58.621 65.3452 57.2726 62.3543 55.3429 60.4246C48.2204 53.3021 35.8749 63.334 27.7685 82.8315C19.6621 102.329 18.8646 123.909 25.9871 131.031C31.1536 136.198 39.068 132.338 46.1194 122.388C46.8985 126.111 48.2469 129.102 50.1766 131.031C55.343 136.198 63.2576 132.338 70.309 122.387C71.0882 126.111 72.4366 129.102 74.3664 131.032C79.5339 136.2 87.4503 132.338 94.5027 122.383C95.2816 126.109 96.6304 129.103 98.5614 131.034C103.729 136.201 111.645 132.339 118.697 122.385C119.476 126.109 120.825 129.101 122.755 131.031C129.878 138.154 142.223 128.122 150.329 108.625C158.436 89.127 159.233 67.5472 152.111 60.4246C146.943 55.2573 139.027 59.1189 131.975 69.0734C131.196 65.349 129.847 62.3571 127.917 60.4269Z" fill="#FF8577"/>
<path d="M107.781 69.0763L107.241 69.1892C107.286 69.404 107.454 69.5718 107.669 69.6165C107.883 69.6612 108.104 69.5743 108.231 69.3952L107.781 69.0763ZM127.917 60.4269L128.307 60.0368L127.917 60.4269ZM103.722 60.4253L104.112 60.0352L103.722 60.4253ZM83.5898 69.0694L83.0497 69.1824C83.0947 69.3972 83.2626 69.5649 83.4774 69.6096C83.6922 69.6543 83.9131 69.5674 84.0399 69.3884L83.5898 69.0694ZM59.4001 69.0684L58.8601 69.1814C58.905 69.3961 59.073 69.5639 59.2878 69.6086C59.5026 69.6532 59.7234 69.5664 59.8503 69.3874L59.4001 69.0684ZM27.7685 82.8315L27.2591 82.6197L27.7685 82.8315ZM25.9871 131.031L26.3773 130.641V130.641L25.9871 131.031ZM46.1194 122.388L46.6594 122.275C46.6145 122.06 46.4465 121.892 46.2317 121.848C46.0169 121.803 45.7961 121.89 45.6692 122.069L46.1194 122.388ZM50.1766 131.031L49.7864 131.422L49.7864 131.422L50.1766 131.031ZM70.309 122.387L70.8491 122.274C70.8041 122.06 70.6362 121.892 70.4214 121.847C70.2066 121.803 69.9857 121.889 69.8589 122.068L70.309 122.387ZM74.3664 131.032L73.9763 131.422L73.9763 131.422L74.3664 131.032ZM94.5027 122.383L95.0427 122.27C94.9978 122.055 94.8299 121.887 94.6151 121.843C94.4002 121.798 94.1793 121.885 94.0525 122.064L94.5027 122.383ZM98.5614 131.034L98.9515 130.644L98.5614 131.034ZM118.697 122.385L119.237 122.272C119.192 122.057 119.024 121.889 118.81 121.845C118.595 121.8 118.374 121.887 118.247 122.066L118.697 122.385ZM122.755 131.031L123.145 130.641L123.145 130.641L122.755 131.031ZM150.329 108.625L150.839 108.836L150.329 108.625ZM152.111 60.4246L152.501 60.0345L152.501 60.0345L152.111 60.4246ZM131.975 69.0734L131.435 69.1864C131.48 69.4011 131.648 69.5689 131.863 69.6136C132.077 69.6583 132.298 69.5714 132.425 69.3923L131.975 69.0734ZM108.231 69.3952C111.73 64.4569 115.402 61.0916 118.781 59.5846C120.464 58.8339 122.055 58.5527 123.51 58.7454C124.959 58.9373 126.314 59.6037 127.527 60.8171L128.307 60.0368C126.937 58.6664 125.364 57.8778 123.655 57.6515C121.952 57.4261 120.154 57.7637 118.331 58.5768C114.697 60.1977 110.885 63.7407 107.331 68.7574L108.231 69.3952ZM103.332 60.8154C105.158 62.6408 106.473 65.5172 107.241 69.1892L108.321 68.9634C107.531 65.1823 106.149 62.0717 104.112 60.0352L103.332 60.8154ZM84.0399 69.3884C87.5379 64.452 91.2094 61.0882 94.5875 59.5822C96.2705 58.8319 97.861 58.5511 99.3161 58.7439C100.765 58.9359 102.119 59.6024 103.332 60.8154L104.112 60.0352C102.742 58.665 101.17 57.8765 99.461 57.65C97.7587 57.4244 95.9611 57.7617 94.1382 58.5744C90.5046 60.1943 86.693 63.7357 83.1396 68.7504L84.0399 69.3884ZM79.1422 60.8148C80.9666 62.6391 82.282 65.5133 83.0497 69.1824L84.1298 68.9564C83.3393 65.1782 81.9579 62.0699 79.9225 60.0345L79.1422 60.8148ZM59.8503 69.3874C63.3482 64.4511 67.0197 61.0874 70.3977 59.5815C72.0807 58.8312 73.6712 58.5504 75.1262 58.7433C76.5749 58.9352 77.9292 59.6017 79.1422 60.8148L79.9225 60.0345C78.5524 58.6644 76.9799 57.8758 75.2712 57.6494C73.5688 57.4237 71.7713 57.761 69.9484 58.5736C66.3149 60.1935 62.5034 63.7349 58.95 68.7494L59.8503 69.3874ZM54.9528 60.8148C56.777 62.639 58.0924 65.5128 58.8601 69.1814L59.9402 68.9554C59.1496 65.1776 57.7683 62.0697 55.7331 60.0345L54.9528 60.8148ZM28.278 83.0433C32.3113 73.3423 37.379 66.0502 42.2726 62.0737C44.7194 60.0855 47.0855 58.9559 49.228 58.7277C51.3454 58.5021 53.2883 59.1503 54.9528 60.8148L55.7331 60.0345C53.8363 58.1377 51.565 57.369 49.1111 57.6304C46.6823 57.8892 44.1199 59.1508 41.5767 61.2174C36.4903 65.3506 31.3321 72.8232 27.2591 82.6197L28.278 83.0433ZM26.3773 130.641C24.6948 128.959 23.444 126.382 22.6571 123.108C21.8717 119.84 21.5585 115.918 21.7183 111.592C22.0381 102.941 24.248 92.7363 28.278 83.0433L27.2591 82.6197C23.1827 92.4243 20.9406 102.758 20.6156 111.552C20.4531 115.948 20.7693 119.975 21.5842 123.366C22.3977 126.751 23.7182 129.543 25.597 131.422L26.3773 130.641ZM45.6692 122.069C42.1713 127.005 38.4999 130.369 35.1218 131.875C33.4388 132.625 31.8483 132.906 30.3933 132.713C28.9446 132.521 27.5903 131.854 26.3773 130.641L25.597 131.422C26.9671 132.792 28.5396 133.58 30.2483 133.807C31.9507 134.032 33.7482 133.695 35.5711 132.882C39.2047 131.263 43.0161 127.721 46.5695 122.707L45.6692 122.069ZM50.5667 130.641C48.7425 128.817 47.4271 125.943 46.6594 122.275L45.5793 122.501C46.3699 126.278 47.7512 129.386 49.7864 131.422L50.5667 130.641ZM69.8589 122.068C66.3609 127.005 62.6894 130.369 59.3113 131.875C57.6283 132.625 56.0378 132.906 54.5828 132.713C53.1341 132.521 51.7798 131.854 50.5667 130.641L49.7864 131.422C51.1566 132.792 52.7291 133.58 54.4378 133.807C56.1402 134.032 57.9377 133.695 59.7606 132.882C63.3942 131.262 67.2058 127.721 70.7592 122.706L69.8589 122.068ZM74.7566 130.642C72.9322 128.818 71.6168 125.943 70.8491 122.274L69.769 122.5C70.5595 126.279 71.9409 129.387 73.9763 131.422L74.7566 130.642ZM94.0525 122.064C90.554 127.002 86.8818 130.368 83.503 131.874C81.8196 132.625 80.2288 132.906 78.7734 132.714C77.3244 132.522 75.9699 131.855 74.7566 130.642L73.9763 131.422C75.3467 132.793 76.9195 133.581 78.6286 133.808C80.3313 134.033 82.1292 133.695 83.9524 132.882C87.5868 131.261 91.399 127.718 94.9529 122.702L94.0525 122.064ZM98.9515 130.644C97.1261 128.818 95.8103 125.942 95.0427 122.27L93.9626 122.496C94.7529 126.277 96.1348 129.387 98.1713 131.424L98.9515 130.644ZM118.247 122.066C114.749 127.004 111.076 130.369 107.698 131.876C106.014 132.627 104.424 132.908 102.968 132.715C101.519 132.523 100.165 131.857 98.9515 130.644L98.1713 131.424C99.5416 132.794 101.114 133.583 102.823 133.809C104.526 134.035 106.324 133.697 108.147 132.884C111.781 131.263 115.594 127.72 119.147 122.704L118.247 122.066ZM123.145 130.641C121.32 128.817 120.005 125.942 119.237 122.272L118.157 122.498C118.948 126.277 120.329 129.386 122.365 131.422L123.145 130.641ZM149.82 108.413C145.787 118.114 140.719 125.406 135.825 129.382C133.378 131.371 131.012 132.5 128.87 132.728C126.752 132.954 124.81 132.306 123.145 130.641L122.365 131.422C124.262 133.318 126.533 134.087 128.987 133.826C131.416 133.567 133.978 132.305 136.521 130.239C141.608 126.106 146.766 118.633 150.839 108.836L149.82 108.413ZM151.721 60.8148C153.403 62.4973 154.654 65.0737 155.441 68.3478C156.226 71.6158 156.539 75.5379 156.38 79.8636C156.06 88.5151 153.85 98.7198 149.82 108.413L150.839 108.836C154.915 99.0318 157.157 88.6978 157.482 79.9043C157.645 75.5076 157.329 71.4806 156.514 68.0899C155.7 64.7053 154.38 61.9133 152.501 60.0345L151.721 60.8148ZM132.425 69.3923C135.924 64.4542 139.596 61.0891 142.974 59.5822C144.658 58.8315 146.249 58.5504 147.704 58.7432C149.153 58.935 150.507 59.6015 151.721 60.8148L152.501 60.0345C151.131 58.6641 149.558 57.8755 147.849 57.6492C146.146 57.4238 144.348 57.7614 142.525 58.5745C138.891 60.1952 135.079 63.7381 131.525 68.7545L132.425 69.3923ZM127.527 60.8171C129.352 62.6417 130.667 65.5165 131.435 69.1864L132.515 68.9604C131.725 65.1814 130.343 62.0725 128.307 60.0368L127.527 60.8171Z" fill="black"/>
</mask>
<g mask="url(#mask1_335_8197)">
<rect x="-23.0281" y="15.6134" width="120.4" height="120.4" fill="#CDCDCD"/>
<path d="M81.6183 15.6134V136.013" stroke="black" stroke-width="1.10346"/>
<path d="M96.809 119.416L-23.591 119.416" stroke="black" stroke-width="1.10346"/>
<path d="M64.1774 15.6134V136.013" stroke="black" stroke-width="1.10346"/>
<path d="M96.809 101.975L-23.591 101.975" stroke="black" stroke-width="1.10346"/>
<path d="M46.7363 15.6134V136.013" stroke="black" stroke-width="1.10346"/>
<path d="M96.809 84.5339L-23.591 84.5339" stroke="black" stroke-width="1.10346"/>
<path d="M29.2944 15.6134V136.013" stroke="black" stroke-width="1.10346"/>
<path d="M96.809 67.0929L-23.591 67.0929" stroke="black" stroke-width="1.10346"/>
</g>
<path d="M8.74524 17.3695C4.61239 17.3695 1.26206 20.7199 1.26206 24.8527L1.26205 162.465C1.26205 166.598 4.61239 169.948 8.74524 169.948L89.4383 169.948C93.5711 169.948 96.9214 166.598 96.9214 162.465L96.9214 24.8527C96.9214 20.7199 93.5711 17.3695 89.4383 17.3695L8.74524 17.3695Z" stroke="black" stroke-width="1.10346"/>
<path d="M20.0091 33.0348C19.913 32.7332 19.7837 32.4631 19.6213 32.2244C19.4622 31.9825 19.2717 31.777 19.0496 31.608C18.8275 31.4356 18.574 31.3047 18.2889 31.2152C18.0072 31.1257 17.6973 31.081 17.3593 31.081C16.7859 31.081 16.2688 31.2285 15.8081 31.5234C15.3474 31.8184 14.9828 32.2509 14.7144 32.821C14.4492 33.3878 14.3166 34.0821 14.3166 34.9041C14.3166 35.7294 14.4509 36.4271 14.7193 36.9972C14.9878 37.5672 15.3557 37.9998 15.823 38.2947C16.2904 38.5897 16.8223 38.7372 17.4189 38.7372C17.9724 38.7372 18.4547 38.6245 18.8656 38.3991C19.2799 38.1738 19.5998 37.8556 19.8252 37.4446C20.0539 37.0303 20.1682 36.5431 20.1682 35.983L20.5659 36.0575H17.6526V34.7898H21.6547V35.9482C21.6547 36.8033 21.4724 37.5457 21.1078 38.1754C20.7466 38.8018 20.2461 39.2857 19.6064 39.6271C18.97 39.9685 18.2409 40.1392 17.4189 40.1392C16.4975 40.1392 15.6888 39.9271 14.9928 39.5028C14.3001 39.0786 13.7598 38.477 13.372 37.6982C12.9843 36.916 12.7904 35.9879 12.7904 34.9141C12.7904 34.102 12.9031 33.3729 13.1284 32.7266C13.3538 32.0803 13.6703 31.5317 14.078 31.081C14.489 30.6269 14.9712 30.2805 15.5247 30.0419C16.0816 29.8 16.6897 29.679 17.3493 29.679C17.8995 29.679 18.4116 29.7602 18.8855 29.9226C19.3628 30.085 19.787 30.3153 20.1583 30.6136C20.5328 30.9119 20.8427 31.2666 21.0879 31.6776C21.3332 32.0852 21.4989 32.5376 21.5851 33.0348H20.0091ZM30.4954 33.0348C30.3993 32.7332 30.2701 32.4631 30.1077 32.2244C29.9486 31.9825 29.758 31.777 29.5359 31.608C29.3139 31.4356 29.0603 31.3047 28.7753 31.2152C28.4935 31.1257 28.1836 31.081 27.8456 31.081C27.2722 31.081 26.7551 31.2285 26.2944 31.5234C25.8337 31.8184 25.4692 32.2509 25.2007 32.821C24.9355 33.3878 24.803 34.0821 24.803 34.9041C24.803 35.7294 24.9372 36.4271 25.2057 36.9972C25.4741 37.5672 25.842 37.9998 26.3094 38.2947C26.7767 38.5897 27.3086 38.7372 27.9052 38.7372C28.4587 38.7372 28.941 38.6245 29.352 38.3991C29.7663 38.1738 30.0861 37.8556 30.3115 37.4446C30.5402 37.0303 30.6545 36.5431 30.6545 35.983L31.0523 36.0575H28.1389V34.7898H32.141V35.9482C32.141 36.8033 31.9587 37.5457 31.5942 38.1754C31.2329 38.8018 30.7324 39.2857 30.0927 39.6271C29.4564 39.9685 28.7272 40.1392 27.9052 40.1392C26.9838 40.1392 26.1751 39.9271 25.4791 39.5028C24.7864 39.0786 24.2461 38.477 23.8584 37.6982C23.4706 36.916 23.2767 35.9879 23.2767 34.9141C23.2767 34.102 23.3894 33.3729 23.6148 32.7266C23.8401 32.0803 24.1567 31.5317 24.5643 31.081C24.9753 30.6269 25.4576 30.2805 26.0111 30.0419C26.5679 29.8 27.1761 29.679 27.8356 29.679C28.3858 29.679 28.8979 29.7602 29.3719 29.9226C29.8491 30.085 30.2734 30.3153 30.6446 30.6136C31.0191 30.9119 31.329 31.2666 31.5743 31.6776C31.8195 32.0852 31.9853 32.5376 32.0714 33.0348H30.4954ZM40.6387 29.8182H42.1799V36.5149C42.1799 37.2275 42.0125 37.8589 41.6778 38.4091C41.343 38.956 40.8724 39.3868 40.2659 39.7017C39.6593 40.0133 38.9484 40.169 38.133 40.169C37.321 40.169 36.6117 40.0133 36.0052 39.7017C35.3987 39.3868 34.928 38.956 34.5933 38.4091C34.2585 37.8589 34.0911 37.2275 34.0911 36.5149V29.8182H35.6274V36.3906C35.6274 36.8513 35.7285 37.2607 35.9306 37.6186C36.1361 37.9766 36.4261 38.2583 36.8007 38.4638C37.1752 38.666 37.6193 38.767 38.133 38.767C38.6501 38.767 39.0959 38.666 39.4704 38.4638C39.8482 38.2583 40.1366 37.9766 40.3355 37.6186C40.5376 37.2607 40.6387 36.8513 40.6387 36.3906V29.8182ZM44.4134 40V29.8182H50.7273V31.1406H45.9496V34.2429H50.2749V35.5604H45.9496V40H44.4134Z" fill="black"/>
</g>
<mask id="mask2_335_8197" style="mask-type:alpha" maskUnits="userSpaceOnUse" x="77" y="0" width="98" height="155">
<path d="M166.465 153.63C170.598 153.63 173.948 150.28 173.948 146.147L173.948 8.53494C173.948 4.4021 170.598 1.05174 166.465 1.05174L85.7721 1.05172C81.6392 1.05172 78.2889 4.40206 78.2889 8.53492L78.2889 146.147C78.2889 150.28 81.6392 153.63 85.772 153.63L166.465 153.63Z" fill="white" stroke="black" stroke-width="1.10346"/>
</mask>
<g mask="url(#mask2_335_8197)">
<path d="M166.465 153.63C170.598 153.63 173.948 150.28 173.948 146.147L173.948 8.53494C173.948 4.4021 170.598 1.05174 166.465 1.05174L85.7721 1.05172C81.6392 1.05172 78.2889 4.40206 78.2889 8.53492L78.2889 146.147C78.2889 150.28 81.6392 153.63 85.772 153.63L166.465 153.63Z" fill="#444444" stroke="#444444" stroke-width="1.10346"/>
<rect x="74.445" y="-23.9982" width="116.883" height="178.364" fill="#2F2F2F"/>
<path d="M190.782 110.454L73.899 110.454" stroke="#444444" stroke-width="1.10346"/>
<path d="M162.927 -23.9982V154.366" stroke="#444444" stroke-width="1.10346"/>
<path d="M190.782 65.1838L73.899 65.1838" stroke="#444444" stroke-width="1.10346"/>
<path d="M133.433 -23.9982V154.366" stroke="#444444" stroke-width="1.10346"/>
<path d="M190.782 20.3663L73.899 20.3663" stroke="#444444" stroke-width="1.10346"/>
<path d="M103.939 -23.9982V154.366" stroke="#444444" stroke-width="1.10346"/>
<path fill-rule="evenodd" clip-rule="evenodd" d="M42.713 113.891C47.8803 119.059 55.7966 115.197 62.8488 105.243C63.6277 108.969 64.9766 111.963 66.9075 113.894C72.0742 119.06 79.9892 115.2 87.0408 105.248C87.8199 108.972 89.1684 111.964 91.0983 113.894C96.2647 119.06 104.179 115.201 111.231 105.25C112.01 108.973 113.358 111.964 115.288 113.894C122.41 121.016 134.756 110.984 142.862 91.4868C150.969 71.9892 151.766 50.4094 144.644 43.2869C139.477 38.1204 131.563 41.9798 124.511 51.9306C123.732 48.2074 122.384 45.2166 120.454 43.2869C115.287 38.1202 107.372 41.9802 100.321 51.9321C99.5417 48.2083 98.1932 45.2168 96.2633 43.2869C91.096 38.1196 83.1797 41.9811 76.1275 51.9356C75.3486 48.2091 73.9998 45.2156 72.0688 43.2846C66.9014 38.1172 58.985 41.979 51.9327 51.9339C51.1536 48.2092 49.805 45.2171 47.8748 43.2869C40.7522 36.1643 28.4068 46.1962 20.3004 65.6938C12.194 85.1913 11.3965 106.771 18.519 113.894C23.6864 119.061 31.6028 115.199 38.6551 105.244C39.4342 108.969 40.7828 111.961 42.713 113.891Z" fill="#D7D7D7"/>
<path d="M62.8488 105.243L63.3889 105.13C63.344 104.915 63.176 104.747 62.9612 104.703C62.7464 104.658 62.5255 104.745 62.3986 104.924L62.8488 105.243ZM42.713 113.891L43.1032 113.501L42.713 113.891ZM87.0408 105.248L87.5808 105.135C87.5359 104.921 87.368 104.753 87.1532 104.708C86.9384 104.664 86.7175 104.75 86.5906 104.929L87.0408 105.248ZM111.231 105.25L111.771 105.137C111.726 104.922 111.558 104.754 111.343 104.71C111.128 104.665 110.907 104.752 110.78 104.931L111.231 105.25ZM115.288 113.894L115.678 113.504L115.678 113.504L115.288 113.894ZM142.862 91.4868L143.372 91.6986L142.862 91.4868ZM144.644 43.2869L144.253 43.677L144.253 43.677L144.644 43.2869ZM124.511 51.9306L123.971 52.0436C124.016 52.2584 124.184 52.4261 124.399 52.4708C124.614 52.5155 124.835 52.4286 124.961 52.2496L124.511 51.9306ZM120.454 43.2869L120.844 42.8967L120.844 42.8967L120.454 43.2869ZM100.321 51.9321L99.7808 52.0451C99.8257 52.2599 99.9936 52.4276 100.208 52.4723C100.423 52.517 100.644 52.4301 100.771 52.2511L100.321 51.9321ZM96.2633 43.2869L96.6534 42.8967L96.6534 42.8967L96.2633 43.2869ZM76.1275 51.9356L75.5875 52.0485C75.6323 52.2633 75.8003 52.4311 76.0151 52.4758C76.23 52.5205 76.4509 52.4336 76.5777 52.2545L76.1275 51.9356ZM72.0688 43.2846L71.6787 43.6748L72.0688 43.2846ZM51.9327 51.9339L51.3926 52.0468C51.4375 52.2616 51.6055 52.4294 51.8203 52.4741C52.0351 52.5187 52.256 52.4319 52.3829 52.2528L51.9327 51.9339ZM47.8748 43.2869L48.2649 42.8967L48.2649 42.8967L47.8748 43.2869ZM20.3004 65.6938L19.7909 65.4819L20.3004 65.6938ZM18.519 113.894L18.1289 114.284L18.1289 114.284L18.519 113.894ZM38.6551 105.244L39.1952 105.131C39.1503 104.917 38.9823 104.749 38.7675 104.704C38.5527 104.66 38.3318 104.746 38.2049 104.925L38.6551 105.244ZM62.3986 104.924C58.9002 109.862 55.2281 113.227 51.8493 114.734C50.166 115.485 48.5752 115.766 47.1199 115.573C45.6709 115.381 44.3164 114.715 43.1032 113.501L42.3229 114.282C43.6932 115.652 45.266 116.441 46.975 116.667C48.6777 116.892 50.4756 116.555 52.2988 115.742C55.933 114.121 59.7452 110.578 63.299 105.562L62.3986 104.924ZM67.2976 113.504C65.4723 111.678 64.1564 108.802 63.3889 105.13L62.3087 105.356C63.0991 109.137 64.4809 112.247 66.5174 114.284L67.2976 113.504ZM86.5906 104.929C83.0926 109.866 79.4209 113.23 76.0426 114.737C74.3595 115.487 72.769 115.768 71.3139 115.575C69.8651 115.383 68.5108 114.717 67.2976 113.504L66.5174 114.284C67.8876 115.654 69.4601 116.443 71.1689 116.669C72.8714 116.895 74.669 116.557 76.492 115.744C80.1258 114.124 83.9374 110.582 87.491 105.567L86.5906 104.929ZM91.4885 113.504C89.664 111.679 88.3485 108.805 87.5808 105.135L86.5008 105.361C87.2913 109.14 88.6727 112.248 90.7082 114.284L91.4885 113.504ZM110.78 104.931C107.282 109.867 103.611 113.231 100.233 114.737C98.55 115.487 96.9595 115.768 95.5045 115.575C94.0558 115.383 92.7015 114.717 91.4885 113.504L90.7082 114.284C92.0783 115.654 93.6508 116.442 95.3595 116.669C97.0618 116.895 98.8594 116.557 100.682 115.745C104.316 114.125 108.127 110.583 111.681 105.569L110.78 104.931ZM115.678 113.504C113.854 111.679 112.538 108.806 111.771 105.137L110.691 105.363C111.481 109.141 112.862 112.249 114.898 114.284L115.678 113.504ZM142.353 91.275C138.319 100.976 133.252 108.268 128.358 112.245C125.911 114.233 123.545 115.362 121.403 115.591C119.285 115.816 117.342 115.168 115.678 113.504L114.898 114.284C116.794 116.181 119.066 116.949 121.52 116.688C123.948 116.429 126.511 115.168 129.054 113.101C134.14 108.968 139.299 101.495 143.372 91.6986L142.353 91.275ZM144.253 43.677C145.936 45.3595 147.187 47.9359 147.974 51.21C148.759 54.478 149.072 58.4001 148.912 62.7258C148.593 71.3773 146.383 81.582 142.353 91.275L143.372 91.6986C147.448 81.894 149.69 71.56 150.015 62.7666C150.178 58.3698 149.861 54.3429 149.046 50.9522C148.233 47.5675 146.912 44.7755 145.034 42.8967L144.253 43.677ZM124.961 52.2496C128.459 47.3134 132.131 43.9497 135.509 42.4437C137.192 41.6934 138.782 41.4126 140.237 41.6055C141.686 41.7975 143.04 42.4639 144.253 43.677L145.034 42.8967C143.664 41.5266 142.091 40.738 140.382 40.5116C138.68 40.286 136.882 40.6232 135.06 41.4359C131.426 43.0557 127.615 46.5971 124.061 51.6116L124.961 52.2496ZM120.064 43.677C121.888 45.5012 123.204 48.375 123.971 52.0436L125.051 51.8176C124.261 48.0399 122.879 44.9319 120.844 42.8967L120.064 43.677ZM100.771 52.2511C104.269 47.3143 107.941 43.9501 111.319 42.4439C113.002 41.6935 114.593 41.4127 116.048 41.6055C117.496 41.7974 118.851 42.4638 120.064 43.677L120.844 42.8967C119.474 41.5265 117.901 40.738 116.193 40.5116C114.49 40.286 112.693 40.6233 110.87 41.4361C107.236 43.0562 103.424 46.598 99.8706 51.6131L100.771 52.2511ZM95.8732 43.677C97.6976 45.5014 99.0131 48.3758 99.7808 52.0451L100.861 51.8191C100.07 48.0407 98.6889 44.9322 96.6534 42.8967L95.8732 43.677ZM76.5777 52.2545C80.0761 47.3164 83.7482 43.9513 87.127 42.4445C88.8103 41.6938 90.4011 41.4127 91.8564 41.6054C93.3054 41.7973 94.6599 42.4637 95.8732 43.677L96.6534 42.8967C95.2831 41.5264 93.7103 40.7378 92.0013 40.5115C90.2986 40.286 88.5007 40.6236 86.6775 41.4367C83.0433 43.0574 79.2312 46.6003 75.6773 51.6167L76.5777 52.2545ZM71.6787 43.6748C73.5041 45.5001 74.8199 48.3765 75.5875 52.0485L76.6676 51.8227C75.8772 48.0416 74.4954 44.931 72.4589 42.8945L71.6787 43.6748ZM52.3829 52.2528C55.8813 47.3145 59.5535 43.9492 62.9323 42.4423C64.6157 41.6915 66.2065 41.4104 67.6619 41.6031C69.1108 41.795 70.4654 42.4615 71.6787 43.6748L72.4589 42.8945C71.0886 41.5241 69.5158 40.7355 67.8067 40.5092C66.104 40.2838 64.3061 40.6214 62.4829 41.4345C58.8486 43.0554 55.0363 46.5984 51.4825 51.6149L52.3829 52.2528ZM47.4847 43.677C49.3094 45.5017 50.625 48.3767 51.3926 52.0468L52.4727 51.8209C51.6823 48.0417 50.3007 44.9325 48.2649 42.8967L47.4847 43.677ZM20.8098 65.9056C24.8432 56.2045 29.9109 48.9125 34.8045 44.936C37.2513 42.9477 39.6174 41.8182 41.7599 41.5899C43.8773 41.3643 45.8201 42.0125 47.4847 43.677L48.2649 42.8967C46.3681 41 44.0969 40.2312 41.643 40.4926C39.2141 40.7514 36.6517 42.013 34.1086 44.0796C29.0222 48.2128 23.864 55.6855 19.7909 65.4819L20.8098 65.9056ZM18.9091 113.504C17.2266 111.821 15.9759 109.245 15.189 105.971C14.4036 102.702 14.0903 98.7804 14.2502 94.4547C14.5699 85.8032 16.7799 75.5985 20.8098 65.9056L19.7909 65.4819C15.7145 75.2865 13.4725 85.6205 13.1475 94.414C12.985 98.8107 13.3012 102.838 14.1161 106.228C14.9296 109.613 16.2501 112.405 18.1289 114.284L18.9091 113.504ZM38.2049 104.925C34.7065 109.864 31.0343 113.229 27.6555 114.736C25.9721 115.487 24.3813 115.768 22.9259 115.575C21.477 115.383 20.1224 114.717 18.9091 113.504L18.1289 114.284C19.4993 115.654 21.072 116.443 22.7811 116.669C24.4838 116.895 26.2817 116.557 28.1049 115.744C31.7393 114.123 35.5515 110.58 39.1053 105.563L38.2049 104.925ZM43.1032 113.501C41.2784 111.677 39.9628 108.802 39.1952 105.131L38.1151 105.357C38.9056 109.137 40.2871 112.246 42.3229 114.282L43.1032 113.501Z" fill="#444444"/>
<path d="M166.465 153.63C170.598 153.63 173.948 150.28 173.948 146.147L173.948 8.53494C173.948 4.4021 170.598 1.05174 166.465 1.05174L85.7721 1.05172C81.6392 1.05172 78.2889 4.40206 78.2889 8.53492L78.2889 146.147C78.2889 150.28 81.6392 153.63 85.772 153.63L166.465 153.63Z" stroke="#444444" stroke-width="1.10346"/>
<path d="M89.6761 131.912V130.818H97.3125V131.912H94.1108V141H92.8778V131.912H89.6761ZM101.151 141.159C100.415 141.159 99.7801 140.997 99.2464 140.672C98.7161 140.344 98.3068 139.886 98.0185 139.3C97.7334 138.71 97.5909 138.024 97.5909 137.241C97.5909 136.459 97.7334 135.77 98.0185 135.173C98.3068 134.573 98.7079 134.106 99.2216 133.771C99.7386 133.433 100.342 133.264 101.031 133.264C101.429 133.264 101.822 133.33 102.21 133.463C102.597 133.596 102.95 133.811 103.268 134.109C103.587 134.404 103.84 134.795 104.029 135.283C104.218 135.77 104.312 136.37 104.312 137.082V137.579H98.4261V136.565H103.119C103.119 136.134 103.033 135.75 102.861 135.412C102.692 135.074 102.45 134.807 102.135 134.611C101.823 134.416 101.455 134.318 101.031 134.318C100.564 134.318 100.16 134.434 99.8182 134.666C99.4801 134.895 99.2199 135.193 99.0376 135.561C98.8554 135.929 98.7642 136.323 98.7642 136.744V137.42C98.7642 137.997 98.8636 138.486 99.0625 138.887C99.2647 139.285 99.5447 139.588 99.9027 139.797C100.261 140.002 100.677 140.105 101.151 140.105C101.459 140.105 101.737 140.062 101.986 139.976C102.238 139.886 102.455 139.754 102.637 139.578C102.819 139.399 102.96 139.177 103.06 138.912L104.193 139.23C104.074 139.615 103.873 139.953 103.592 140.244C103.31 140.533 102.962 140.758 102.548 140.92C102.133 141.079 101.668 141.159 101.151 141.159ZM107.271 136.406V141H106.097V133.364H107.231V134.557H107.33C107.509 134.169 107.781 133.857 108.146 133.622C108.51 133.383 108.981 133.264 109.558 133.264C110.075 133.264 110.527 133.37 110.915 133.582C111.303 133.791 111.604 134.109 111.82 134.537C112.035 134.961 112.143 135.498 112.143 136.148V141H110.969V136.227C110.969 135.627 110.814 135.16 110.502 134.825C110.191 134.487 109.763 134.318 109.219 134.318C108.845 134.318 108.51 134.399 108.215 134.562C107.924 134.724 107.693 134.961 107.524 135.273C107.355 135.584 107.271 135.962 107.271 136.406ZM119.696 135.074L118.642 135.372C118.576 135.196 118.478 135.026 118.349 134.86C118.223 134.691 118.05 134.552 117.831 134.442C117.613 134.333 117.333 134.278 116.991 134.278C116.524 134.278 116.135 134.386 115.823 134.602C115.515 134.814 115.361 135.084 115.361 135.412C115.361 135.704 115.467 135.934 115.679 136.103C115.891 136.272 116.222 136.413 116.673 136.526L117.807 136.804C118.489 136.97 118.998 137.223 119.333 137.565C119.668 137.903 119.835 138.338 119.835 138.872C119.835 139.31 119.709 139.701 119.457 140.045C119.209 140.39 118.861 140.662 118.413 140.861C117.966 141.06 117.445 141.159 116.852 141.159C116.073 141.159 115.429 140.99 114.918 140.652C114.408 140.314 114.085 139.82 113.949 139.17L115.062 138.892C115.168 139.303 115.369 139.611 115.664 139.817C115.962 140.022 116.352 140.125 116.832 140.125C117.379 140.125 117.813 140.009 118.135 139.777C118.46 139.542 118.622 139.26 118.622 138.932C118.622 138.667 118.529 138.445 118.344 138.266C118.158 138.083 117.873 137.947 117.488 137.858L116.216 137.56C115.516 137.394 115.003 137.137 114.675 136.789C114.35 136.438 114.187 135.999 114.187 135.472C114.187 135.041 114.308 134.66 114.55 134.328C114.796 133.997 115.129 133.736 115.55 133.548C115.974 133.359 116.454 133.264 116.991 133.264C117.747 133.264 118.34 133.43 118.771 133.761C119.205 134.093 119.514 134.53 119.696 135.074ZM124.703 141.159C124.014 141.159 123.409 140.995 122.889 140.667C122.372 140.339 121.967 139.88 121.676 139.29C121.387 138.7 121.243 138.01 121.243 137.222C121.243 136.426 121.387 135.732 121.676 135.138C121.967 134.545 122.372 134.084 122.889 133.756C123.409 133.428 124.014 133.264 124.703 133.264C125.393 133.264 125.996 133.428 126.513 133.756C127.033 134.084 127.438 134.545 127.726 135.138C128.018 135.732 128.164 136.426 128.164 137.222C128.164 138.01 128.018 138.7 127.726 139.29C127.438 139.88 127.033 140.339 126.513 140.667C125.996 140.995 125.393 141.159 124.703 141.159ZM124.703 140.105C125.227 140.105 125.658 139.971 125.996 139.702C126.334 139.434 126.584 139.081 126.747 138.643C126.909 138.206 126.99 137.732 126.99 137.222C126.99 136.711 126.909 136.235 126.747 135.795C126.584 135.354 126.334 134.998 125.996 134.726C125.658 134.454 125.227 134.318 124.703 134.318C124.18 134.318 123.749 134.454 123.411 134.726C123.073 134.998 122.823 135.354 122.66 135.795C122.498 136.235 122.417 136.711 122.417 137.222C122.417 137.732 122.498 138.206 122.66 138.643C122.823 139.081 123.073 139.434 123.411 139.702C123.749 139.971 124.18 140.105 124.703 140.105ZM129.955 141V133.364H131.088V134.517H131.168C131.307 134.139 131.559 133.833 131.923 133.597C132.288 133.362 132.699 133.244 133.156 133.244C133.243 133.244 133.35 133.246 133.48 133.249C133.609 133.253 133.707 133.258 133.773 133.264V134.457C133.733 134.447 133.642 134.432 133.499 134.413C133.36 134.389 133.213 134.378 133.057 134.378C132.686 134.378 132.354 134.456 132.063 134.611C131.774 134.764 131.546 134.976 131.377 135.248C131.211 135.516 131.128 135.823 131.128 136.168V141H129.955ZM135.323 141V130.818H138.763C139.559 130.818 140.212 130.954 140.722 131.226C141.232 131.494 141.61 131.864 141.855 132.334C142.101 132.805 142.223 133.34 142.223 133.94C142.223 134.54 142.101 135.072 141.855 135.536C141.61 136 141.234 136.365 140.727 136.63C140.22 136.892 139.572 137.023 138.783 137.023H135.999V135.909H138.743C139.287 135.909 139.724 135.829 140.056 135.67C140.391 135.511 140.632 135.286 140.782 134.994C140.934 134.699 141.01 134.348 141.01 133.94C141.01 133.533 140.934 133.176 140.782 132.871C140.629 132.566 140.386 132.331 140.051 132.165C139.716 131.996 139.274 131.912 138.723 131.912H136.556V141H135.323ZM140.115 136.426L142.621 141H141.189L138.723 136.426H140.115ZM143.721 131.912V130.818H151.357V131.912H148.156V141H146.923V131.912H143.721Z" fill="white"/>
</g>
</svg>
