<svg width="50" height="40" viewBox="0 0 50 40" fill="none" xmlns="http://www.w3.org/2000/svg">
<g clip-path="url(#clip0_35_8639)">
<mask id="mask0_35_8639" style="mask-type:luminance" maskUnits="userSpaceOnUse" x="0" y="0" width="50" height="40">
<path d="M50 0H0V40H50V0Z" fill="white"/>
</mask>
<g mask="url(#mask0_35_8639)">
<path d="M49.9999 35.4286C49.9999 37.9529 48.6358 40 46.9543 40H3.04554C1.36352 40 0 37.9529 0 35.4286V4.57209C0 2.0465 1.36352 0 3.04554 0H46.9543C48.6358 0 49.9999 2.0465 49.9999 4.57209V35.4286Z" fill="#98CBF9"/>
<path d="M47.0326 1.04065H4.2674C2.62849 1.04065 1.30078 3.0337 1.30078 5.49361V35.5471C1.30078 38.0057 2.62849 39.9994 4.2674 39.9994H46.9537C48.6357 39.9994 49.9998 37.9522 49.9998 35.4279V5.49361C49.9998 3.0337 48.6716 1.04065 47.0326 1.04065Z" fill="#98CBF9"/>
<path d="M3 4.5C3 3.67157 3.67157 3 4.5 3H45.5C46.3284 3 47 3.67157 47 4.5V35.5C47 36.3284 46.3284 37 45.5 37H4.5C3.67157 37 3 36.3284 3 35.5V4.5Z" stroke="#202020" stroke-miterlimit="10"/>
<path d="M6 6H44V34H6V6Z" fill="#202020"/>
<path d="M38.5637 18L32.8364 16.0636V13.9364L38.5637 12V13.6364L34.5001 14.8773V15.1227L38.5637 16.3636V18Z" fill="#98CBF9"/>
<path d="M10 12L15.7273 13.9364L15.7273 16.0636L10 18L10 16.3636L14.0637 15.1227L14.0637 14.8773L10 13.6364L10 12Z" fill="#98CBF9"/>
<path d="M40 30H10V24H40V30Z" fill="white"/>
<path d="M40 30H12V26H40V30Z" fill="#98CBF9"/>
</g>
</g>
<defs>
<clipPath id="clip0_35_8639">
<rect width="50" height="40" fill="white"/>
</clipPath>
</defs>
</svg>
