<svg width="189" height="48" viewBox="0 0 189 48" fill="none" xmlns="http://www.w3.org/2000/svg">
<path d="M172.374 11.886L177.421 21.118L182.55 11.886H188.786L181.247 24.3908L188.916 36.8955H182.713L177.421 27.8915L172.178 36.8955H165.926L173.546 24.3908L166.121 11.886H172.374Z" fill="white"/>
<path d="M153.359 37.384C150.851 37.384 148.686 36.863 146.862 35.8209C145.05 34.768 143.655 33.2809 142.678 31.3596C141.701 29.4274 141.212 27.1533 141.212 24.5373C141.212 21.9647 141.701 19.7069 142.678 17.7639C143.666 15.81 145.044 14.2904 146.813 13.2049C148.583 12.1085 150.662 11.5604 153.05 11.5604C154.591 11.5604 156.046 11.81 157.413 12.3094C158.792 12.7978 160.008 13.5577 161.06 14.5889C162.124 15.6201 162.96 16.9335 163.568 18.5292C164.176 20.114 164.48 22.0027 164.48 24.1954V26.0027H143.98V22.0298H158.83C158.819 20.9009 158.575 19.8969 158.097 19.0176C157.619 18.1275 156.952 17.4274 156.094 16.9172C155.248 16.4071 154.26 16.152 153.131 16.152C151.926 16.152 150.868 16.445 149.956 17.0312C149.044 17.6065 148.333 18.3663 147.823 19.3107C147.324 20.2442 147.069 21.27 147.058 22.3881V25.8562C147.058 27.3107 147.324 28.559 147.856 29.6011C148.387 30.6323 149.131 31.4247 150.086 31.9783C151.041 32.521 152.159 32.7924 153.44 32.7924C154.298 32.7924 155.074 32.673 155.769 32.4342C156.463 32.1845 157.066 31.8209 157.576 31.3433C158.086 30.8657 158.472 30.2741 158.732 29.5685L164.235 30.1872C163.888 31.6418 163.226 32.9118 162.249 33.9973C161.283 35.0719 160.046 35.9077 158.537 36.5047C157.028 37.0909 155.302 37.384 153.359 37.384Z" fill="white"/>
<path d="M139.002 11.886V16.445H124.625V11.886H139.002ZM128.174 5.89417H134.068V29.3731C134.068 30.1655 134.188 30.7734 134.426 31.1967C134.676 31.6092 135.002 31.8915 135.403 32.0434C135.805 32.1954 136.25 32.2714 136.738 32.2714C137.108 32.2714 137.444 32.2442 137.748 32.19C138.063 32.1357 138.302 32.0868 138.464 32.0434L139.458 36.6513C139.143 36.7598 138.692 36.8792 138.106 37.0095C137.531 37.1398 136.825 37.2157 135.99 37.2374C134.513 37.2809 133.184 37.0583 132 36.5699C130.817 36.0706 129.878 35.2999 129.184 34.2578C128.5 33.2157 128.163 31.9132 128.174 30.3501V5.89417Z" fill="white"/>
<path d="M108.366 36.8955V11.886H114.081V16.0543H114.342C114.798 14.6106 115.579 13.498 116.686 12.7164C117.804 11.924 119.08 11.5278 120.513 11.5278C120.838 11.5278 121.202 11.5441 121.604 11.5767C122.016 11.5984 122.358 11.6364 122.629 11.6906V17.1126C122.38 17.0258 121.984 16.9498 121.441 16.8847C120.909 16.8087 120.393 16.7707 119.894 16.7707C118.819 16.7707 117.853 17.0041 116.996 17.4708C116.149 17.9267 115.482 18.5617 114.993 19.3759C114.505 20.19 114.26 21.1289 114.26 22.1927V36.8955H108.366Z" fill="white"/>
<path d="M92.7567 37.384C90.3143 37.384 88.1976 36.8467 86.4066 35.772C84.6156 34.6974 83.2261 33.194 82.2384 31.2619C81.2614 29.3297 80.7729 27.0719 80.7729 24.4885C80.7729 21.905 81.2614 19.6418 82.2384 17.6988C83.2261 15.7558 84.6156 14.2469 86.4066 13.1723C88.1976 12.0977 90.3143 11.5604 92.7567 11.5604C95.199 11.5604 97.3157 12.0977 99.1067 13.1723C100.898 14.2469 102.282 15.7558 103.259 17.6988C104.246 19.6418 104.74 21.905 104.74 24.4885C104.74 27.0719 104.246 29.3297 103.259 31.2619C102.282 33.194 100.898 34.6974 99.1067 35.772C97.3157 36.8467 95.199 37.384 92.7567 37.384ZM92.7892 32.6621C94.1135 32.6621 95.2207 32.2985 96.1108 31.5712C97.0009 30.8331 97.663 29.8453 98.0972 28.6079C98.5423 27.3704 98.7648 25.9919 98.7648 24.4722C98.7648 22.9417 98.5423 21.5577 98.0972 20.3202C97.663 19.0719 97.0009 18.0787 96.1108 17.3406C95.2207 16.6024 94.1135 16.2334 92.7892 16.2334C91.4324 16.2334 90.3035 16.6024 89.4025 17.3406C88.5124 18.0787 87.8449 19.0719 87.3998 20.3202C86.9656 21.5577 86.7485 22.9417 86.7485 24.4722C86.7485 25.9919 86.9656 27.3704 87.3998 28.6079C87.8449 29.8453 88.5124 30.8331 89.4025 31.5712C90.3035 32.2985 91.4324 32.6621 92.7892 32.6621Z" fill="white"/>
<path d="M67.6683 37.384C65.1717 37.384 63.0279 36.8358 61.2368 35.7395C59.4566 34.6431 58.0835 33.1289 57.1174 31.1967C56.1622 29.2537 55.6846 27.0176 55.6846 24.4885C55.6846 21.9484 56.173 19.7069 57.15 17.7639C58.1269 15.81 59.5055 14.2904 61.2857 13.2049C63.0767 12.1085 65.1934 11.5604 67.6357 11.5604C69.6656 11.5604 71.462 11.9349 73.0251 12.6839C74.5991 13.422 75.8528 14.4695 76.7863 15.8263C77.7198 17.1723 78.2517 18.7463 78.382 20.5482H72.7483C72.5204 19.3433 71.9777 18.3392 71.1201 17.536C70.2734 16.7218 69.1391 16.3148 67.7171 16.3148C66.5123 16.3148 65.4539 16.6404 64.5421 17.2917C63.6303 17.9322 62.9193 18.8548 62.4091 20.0597C61.9098 21.2646 61.6601 22.7083 61.6601 24.3908C61.6601 26.095 61.9098 27.5604 62.4091 28.787C62.9085 30.0027 63.6086 30.9417 64.5095 31.6038C65.4213 32.2551 66.4905 32.5807 67.7171 32.5807C68.5855 32.5807 69.3616 32.4179 70.0455 32.0923C70.7402 31.7558 71.3209 31.2727 71.7877 30.6431C72.2544 30.0136 72.5747 29.2483 72.7483 28.3474H78.382C78.2409 30.1167 77.7198 31.6852 76.8189 33.0529C75.9179 34.4098 74.6914 35.4735 73.1391 36.2442C71.5869 37.0041 69.7633 37.384 67.6683 37.384Z" fill="white"/>
<path d="M0 15C0 6.71573 6.71573 0 15 0H33C41.2843 0 48 6.71573 48 15V33C48 41.2843 41.2843 48 33 48H15C6.71573 48 0 41.2843 0 33V15Z" fill="url(#paint0_linear_12_974)"/>
<path fill-rule="evenodd" clip-rule="evenodd" d="M33 0.5625H15C7.02639 0.5625 0.5625 7.02639 0.5625 15V33C0.5625 40.9736 7.02639 47.4375 15 47.4375H33C40.9736 47.4375 47.4375 40.9736 47.4375 33V15C47.4375 7.02639 40.9736 0.5625 33 0.5625ZM15 0C6.71573 0 0 6.71573 0 15V33C0 41.2843 6.71573 48 15 48H33C41.2843 48 48 41.2843 48 33V15C48 6.71573 41.2843 0 33 0H15Z" fill="url(#paint1_linear_12_974)"/>
<path fill-rule="evenodd" clip-rule="evenodd" d="M25.6578 17.0583L21.7642 13.0756C19.3736 10.6943 15.4976 10.6943 13.1069 13.0756C10.7163 15.4569 10.7163 19.3177 13.1069 21.6989L14.6382 23.2242L16.3328 21.5193L14.8101 20.0025C13.36 18.5581 13.36 16.2164 14.8101 14.772C16.2601 13.3277 18.6111 13.3277 20.0611 14.772L23.9915 18.7914L25.6578 17.0583Z" fill="white"/>
<path fill-rule="evenodd" clip-rule="evenodd" d="M22.0223 30.4853L25.8245 34.4037C28.2362 36.888 32.1463 36.888 34.558 34.4037C36.9696 31.9194 36.4412 27.9767 34.0295 25.4924L33.0723 24.5029L31.3056 26.2257L32.3114 27.2622C33.7742 28.7691 34.3027 31.127 32.8399 32.6338C31.3771 34.1407 29.0054 34.1407 27.5426 32.6338L23.7917 28.7652L22.0223 30.4853Z" fill="white"/>
<path fill-rule="evenodd" clip-rule="evenodd" d="M32.9731 23.3002L34.4571 21.8449C36.8663 19.4823 36.8932 15.625 34.517 13.2294C32.1408 10.8339 28.2615 10.8071 25.8522 13.1698L24.309 14.6831L26.0389 16.3534L27.545 14.8764C29.0064 13.4433 31.3594 13.4596 32.8006 14.9126C34.2419 16.3656 34.2256 18.7052 32.7643 20.1383L31.2611 21.6123L32.9731 23.3002Z" fill="white"/>
<path fill-rule="evenodd" clip-rule="evenodd" d="M14.6656 24.3549L13.1816 25.8102C10.7723 28.1728 10.7455 32.03 13.1217 34.4256C15.4978 36.8212 19.3772 36.8479 21.7865 34.4853L23.3297 32.972L21.5998 31.3017L20.0937 32.7787C18.6323 34.2117 16.2793 34.1955 14.838 32.7425C13.3968 31.2894 13.4131 28.9498 14.8744 27.5168L16.3775 26.0428L14.6656 24.3549Z" fill="white"/>
<path fill-rule="evenodd" clip-rule="evenodd" d="M21.3735 17.6831L16.9317 22.1036L15.1694 23.8573L16.9317 25.6111L21.3735 30.0315L23.1357 28.2778L18.6939 23.8573L23.1357 19.4369L21.3735 17.6831Z" fill="white"/>
<path fill-rule="evenodd" clip-rule="evenodd" d="M26.3414 17.6831L30.7832 22.1036L32.5454 23.8573L30.7832 25.6111L26.3414 30.0315L24.5792 28.2778L29.0209 23.8573L24.5792 19.4369L26.3414 17.6831Z" fill="white"/>
<path d="M6.08927 23.8209C6.08927 20.9584 8.02871 18.5308 10.7148 17.6831L10.7148 20.3239C9.45795 21.0219 8.61231 22.3266 8.61231 23.8209C8.61231 25.3152 9.45795 26.6199 10.7148 27.318L10.7148 29.9587C8.02871 29.1111 6.08927 26.6834 6.08927 23.8209Z" fill="white"/>
<path d="M41.5523 23.8209C41.5523 20.9584 39.6129 18.5308 36.9268 17.6831L36.9268 20.3239C38.1837 21.0219 39.0293 22.3266 39.0293 23.8209C39.0293 25.3152 38.1837 26.6199 36.9268 27.318L36.9268 29.9587C39.6129 29.1111 41.5523 26.6834 41.5523 23.8209Z" fill="white"/>
<path d="M23.7354 6.08957C26.6118 6.08957 29.0511 8.01968 29.9028 10.6929L27.2493 10.6929C26.5479 9.44205 25.2369 8.60048 23.7354 8.60048C22.2339 8.60048 20.9229 9.44205 20.2215 10.6929L17.568 10.6929C18.4197 8.01968 20.8591 6.08957 23.7354 6.08957Z" fill="white"/>
<path d="M23.7354 41.5523C26.6118 41.5523 29.0511 39.6221 29.9028 36.9489L27.2493 36.9489C26.5479 38.1998 25.2369 39.0413 23.7354 39.0413C22.2339 39.0413 20.9229 38.1998 20.2215 36.9489L17.568 36.9489C18.4197 39.6221 20.8591 41.5523 23.7354 41.5523Z" fill="white"/>
<defs>
<linearGradient id="paint0_linear_12_974" x1="24" y1="0" x2="24" y2="48" gradientUnits="userSpaceOnUse">
<stop stop-color="#373EE0"/>
<stop offset="1" stop-color="#69A5EC"/>
</linearGradient>
<linearGradient id="paint1_linear_12_974" x1="24" y1="0" x2="24" y2="48" gradientUnits="userSpaceOnUse">
<stop stop-color="#242CEA"/>
<stop offset="1" stop-color="#5E94D4"/>
</linearGradient>
</defs>
</svg>
