<svg width="25" height="24" viewBox="0 0 25 24" fill="none" xmlns="http://www.w3.org/2000/svg">
<g clip-path="url(#clip0_791_34162)">
<path d="M9.449 9.23326V7.80269C9.59029 7.79386 9.73158 7.78503 9.87287 7.78503C13.7937 7.6614 16.3635 11.1584 16.3635 11.1584C16.3635 11.1584 13.5906 15.0086 10.6147 15.0086C10.2173 15.0086 9.82872 14.9467 9.45783 14.8231V10.4784C10.9855 10.6638 11.2946 11.335 12.2042 12.8627L14.2441 11.1495C14.2441 11.1495 12.7517 9.19794 10.2438 9.19794C9.97884 9.18911 9.71392 9.20677 9.449 9.23326ZM9.449 4.5V6.63703L9.87287 6.61054C15.3214 6.4251 18.8802 11.0789 18.8802 11.0789C18.8802 11.0789 14.8004 16.0417 10.5528 16.0417C10.1819 16.0417 9.81989 16.0064 9.45783 15.9446V17.2692C9.75807 17.3045 10.0671 17.331 10.3674 17.331C14.3236 17.331 17.1847 15.3088 19.9576 12.9245C20.4167 13.2954 22.2977 14.1873 22.6862 14.5758C20.0547 16.7835 13.9173 18.5585 10.438 18.5585C10.1025 18.5585 9.78456 18.5408 9.46666 18.5055V20.3688H24.4965V4.5L9.449 4.5ZM9.449 14.8231V15.9534C5.79308 15.3 4.77755 11.4939 4.77755 11.4939C4.77755 11.4939 6.53486 9.55117 9.449 9.23326V10.4696H9.44017C7.91245 10.2841 6.71147 11.7147 6.71147 11.7147C6.71147 11.7147 7.39144 14.1255 9.449 14.8231ZM2.95842 11.335C2.95842 11.335 5.12195 8.13826 9.45783 7.80269V6.63703C4.65392 7.02559 0.503479 11.0877 0.503479 11.0877C0.503479 11.0877 2.85245 17.8874 9.449 18.5055V17.2692C4.60976 16.6687 2.95842 11.335 2.95842 11.335Z" fill="#76B900"/>
</g>
<defs>
<clipPath id="clip0_791_34162">
<rect width="24" height="15.8688" fill="white" transform="translate(0.5 4.5)"/>
</clipPath>
</defs>
</svg>
